<?xml version="1.0" standalone="no"?><!DOCTYPE svg PUBLIC "-//W3C//DTD SVG 1.1//EN" "http://www.w3.org/Graphics/SVG/1.1/DTD/svg11.dtd"><svg t="1698851211811" class="icon" viewBox="0 0 1024 1024" version="1.1" xmlns="http://www.w3.org/2000/svg" p-id="4829" xmlns:xlink="http://www.w3.org/1999/xlink" width="200" height="200"><path d="M947.575912 356.451318l-0.167823-0.163729a10.42749 10.42749 0 0 0-0.293689-0.270153L758.030951 166.949336c-18.015306-28.443819-48.545646-45.387723-81.914638-45.387723h-42.083467c-1.540076-0.357134-3.15383-0.532119-4.884241-0.532119-1.706875 0-3.261277 0.168846-4.631484 0.317225-1.022283 0.110517-1.987261 0.214894-2.753717 0.214894-9.875928 0-18.965957 3.302209-26.198685 8.919137l-16.525372 27.490098c-5.010107 32.832779-32.620955 56.663534-65.653279 56.663534-17.821901 0-34.603099-7.173376-47.25321-20.198018l-0.36225-0.35611c-9.369392-8.734942-15.789615-19.836791-18.565845-32.104186l-0.515746-2.272763a85.938278 85.938278 0 0 1-0.055259-0.73678 47.273676 47.273676 0 0 0-0.237407-2.580779l-0.138146-0.822738a42.400692 42.400692 0 0 0-2.071172-6.885827l-12.821003-17.452487c-7.450692-6.068206-16.916275-9.66308-27.01426-9.663081-0.765433 0-1.731434-0.105401-2.753717-0.214894-1.370207-0.148379-2.923586-0.317225-4.631484-0.317225-1.730411 0-3.344165 0.174985-4.883218 0.532119h-42.085514c-30.16809 0-58.115606 13.889335-76.788897 38.132482L77.099471 355.780029l-1.257644 0.884137-0.499373 0.913812c-15.59928 16.768919-15.250332 43.113937 1.057075 59.45102l3.021823 3.004427L214.764853 555.376926c7.865131 7.877411 18.332531 12.216229 29.475312 12.21623 2.889817 0 5.754051-0.288572 8.559957-0.855484v314.431295h5.89322c7.504928 13.285584 21.572318 21.804608 36.948517 21.804609H730.470245c15.371082 0 29.437449-8.510838 36.945447-21.784142h5.897314V567.120388c2.111081 0.316202 4.242627 0.475837 6.378267 0.475838 11.186783 0 21.674649-4.342912 29.519314-12.21623l138.366348-138.347928c16.696264-16.70138 16.696264-43.878346-0.001023-60.58075zM657.400043 190.769858l0.527002 0.363274c2.045589 1.414209 4.14746 2.867304 6.370082 4.003174l6.360871 5.589298 186.009437 186.02888-83.354429 83.350337v-11.211343l-85.687568-85.694731v444.081121H338.488713V371.09176l-85.688591 85.688591v15.456017l-83.535555-83.516112-1.974981-1.980098L352.481402 201.520713c2.850931-1.696642 5.79703-4.242627 9.110495-7.105838 1.266853-1.094938 3.045359-2.63092 4.774746-4.02671l7.181563 11.373025c23.808242 56.19486 78.472236 92.454692 139.511428 92.454692 29.356608 0 61.375859-12.966313 90.157369-36.510542 22.733771-18.597567 42.059931-42.560328 54.18304-66.935482z" p-id="4830"></path></svg>