<?xml version="1.0" standalone="no"?><!DOCTYPE svg PUBLIC "-//W3C//DTD SVG 1.1//EN" "http://www.w3.org/Graphics/SVG/1.1/DTD/svg11.dtd"><svg t="1698852406901" class="icon" viewBox="0 0 1088 1024" version="1.1" xmlns="http://www.w3.org/2000/svg" p-id="11302" xmlns:xlink="http://www.w3.org/1999/xlink" width="212.5" height="200"><path d="M938.656 682.656c15.712 0 28.448 12.736 28.448 28.448v199.104A113.792 113.792 0 0 1 853.312 1024H113.76a113.792 113.792 0 0 1-113.792-113.792V113.76A113.792 113.792 0 0 1 113.76-0.032h739.552a113.792 113.792 0 0 1 113.792 113.792v85.344a28.448 28.448 0 1 1-56.896 0V113.76c0-31.424-25.472-56.896-56.896-56.896H113.76c-31.424 0-56.896 25.472-56.896 56.896v796.448c0 31.424 25.472 56.896 56.896 56.896h739.552c31.424 0 56.896-25.472 56.896-56.896v-199.104c0-15.712 12.736-28.448 28.448-28.448zM560.64 432h439.52a28.448 28.448 0 1 1 0 56.896H566.272l149.792 149.792a28.448 28.448 0 0 1-40.256 40.192l-213.152-213.152a11.36 11.36 0 0 1 0-16.128l213.152-213.216a28.416 28.416 0 1 1 40.256 40.192l-155.424 155.36zM123.264 701.6H240v21.152H148.064v47.328h86.464v21.152H148.064v51.648h95.808v21.152H123.264v-162.464z m134.944 0h30.272l39.584 58.72 39.584-58.72h30.272l-55.072 78.496 58.944 83.968h-30.336L328 799.68l-43.456 64.384h-30.272l58.496-83.968-54.624-78.496z m231.2-3.168c18.88 0 34.592 4.768 46.88 14.784 11.84 9.568 19.104 22.752 21.632 39.136h-24.128a39.744 39.744 0 0 0-15.584-24.256l-0.128-0.064a49.952 49.952 0 0 0-26.944-7.776l-2.304 0.064h0.096c-17.536 0-30.72 5.92-39.584 17.984-8.416 10.912-12.512 25.952-12.512 44.832 0 19.584 4.096 34.592 12.288 45.28 8.64 11.392 22.08 17.056 40.288 17.056l1.856 0.032c10.4 0 20.032-3.328 27.872-8.992l-0.128 0.096c8.192-6.368 13.888-15.936 17.056-28.672h24.128c-3.648 18.88-12.064 33.664-25.472 44.384-12.512 10.016-27.52 15.008-45.056 15.008-26.624 0-46.656-8.64-60.064-25.472-11.84-14.56-17.536-34.144-17.536-58.72 0-24.128 5.92-43.68 18.208-58.944 13.664-17.28 33.216-25.728 59.168-25.728z m95.808 3.168h116.736v21.152h-91.936v47.328h86.464v21.152h-86.464v51.648h95.808v21.152h-120.608v-162.464z m145.856 0h24.576v141.312h89.44v21.152h-114.048v-162.464z" p-id="11303" fill="#ffffff"></path></svg>