<?xml version="1.0" standalone="no"?><!DOCTYPE svg PUBLIC "-//W3C//DTD SVG 1.1//EN" "http://www.w3.org/Graphics/SVG/1.1/DTD/svg11.dtd"><svg t="1698852226664" class="icon" viewBox="0 0 1024 1024" version="1.1" xmlns="http://www.w3.org/2000/svg" p-id="8825" xmlns:xlink="http://www.w3.org/1999/xlink" width="200" height="200"><path d="M1009.210143 86.797266L901.616759 42.247056l-74.513782 74.491202L715.671003 5.306284 671.120794 112.899669l79.887806 79.932966-57.601411 57.623991-156.027343-156.004763-44.66311 107.615965 124.596075 124.505755-117.438235 117.347916c-49.088776-31.521588-107.186946-50.375832-169.846263-50.375832-174.11387 0-315.238456 141.124587-315.238456 315.215877 0 174.11387 141.124587 315.238456 315.238456 315.238456 174.09129 0 315.238456-141.124587 315.238457-315.238456 0-72.413848-25.425006-138.256935-66.430166-191.522999l430.373539-430.441279z m-679.20441 811.116383a189.106946 189.106946 0 0 1-189.152106-189.152105 189.084366 189.084366 0 0 1 189.152106-189.106946 189.084366 189.084366 0 0 1 189.129526 189.106946 189.106946 189.106946 0 0 1-189.129526 189.152105z" fill="#ffffff" p-id="8826"></path></svg>