<?xml version="1.0" standalone="no"?><!DOCTYPE svg PUBLIC "-//W3C//DTD SVG 1.1//EN" "http://www.w3.org/Graphics/SVG/1.1/DTD/svg11.dtd"><svg t="1698852542073" class="icon" viewBox="0 0 1026 1024" version="1.1" xmlns="http://www.w3.org/2000/svg" p-id="13586" xmlns:xlink="http://www.w3.org/1999/xlink" width="200.390625" height="200"><path d="M511.589373 945.980952a430.182657 430.182657 0 0 1-344.310376-170.25604 23.097744 23.097744 0 1 1 36.69975-28.025263 387.169524 387.169524 0 0 0 612.295539 3.849624 23.097744 23.097744 0 0 1 36.340451 28.538547 431.157895 431.157895 0 0 1-341.025364 165.893132zM150.186667 339.280201a23.046416 23.046416 0 0 1-20.531329-34.082006A433.826967 433.826967 0 0 1 891.624261 302.837093a23.097744 23.097744 0 1 1-40.498045 22.173834 387.682807 387.682807 0 0 0-680.613534 1.950477 22.995088 22.995088 0 0 1-20.326015 12.318797z" p-id="13587" fill="#ffffff"></path><path d="M691.238496 350.572431l34.389975 11.292231-21.557895 29.770426v37.469674l-33.876691-9.752381-34.389975 9.752381v-35.929825l-21.557895-31.310275 34.389975-11.292231 21.557895-27.717293 21.044611 27.717293zM373.51619 350.572431l34.389975 11.292231-21.044611 29.770426v37.469674l-34.389975-9.752381-34.389975 9.752381v-35.929825l-21.557895-31.310275 34.389975-11.292231 21.557895-27.717293 21.044611 27.717293zM537.253534 350.572431l34.389975 11.292231-21.557895 29.770426v37.469674l-34.389975-9.752381-34.389975 9.752381v-35.929825l-21.044611-31.310275 34.389975-11.292231 21.044611-27.717293 21.557895 27.717293zM252.997293 503.633484v27.717293H186.065163v178.5199h-30.643008v-178.5199h-66.726817v-27.717293h164.301955zM448.814837 551.830777a89.978546 89.978546 0 0 0-35.057243-38.136942 99.166316 99.166316 0 0 0-51.328321-13.653334 94.084812 94.084812 0 0 0-71.243709 29.103158c-18.324211 19.299449-27.614637 46.195489-27.614637 80.226166a117.028571 117.028571 0 0 0 11.805514 51.32832 91.210426 91.210426 0 0 0 34.85193 38.496241A98.037093 98.037093 0 0 0 362.121303 713.463659a102.656642 102.656642 0 0 0 50.045113-12.729423 86.744862 86.744862 0 0 0 35.929825-37.572331 122.161404 122.161404 0 0 0 12.626767-55.999198 123.957895 123.957895 0 0 0-11.908171-55.33193z m-86.847519 134.736842a63.133835 63.133835 0 0 1-47.940651-20.531328c-12.729424-13.602005-19.196792-32.593484-19.196792-56.461153 0-29.770426 6.72401-51.328321 19.915388-63.852431a66.726817 66.726817 0 0 1 47.632682-18.991479 64.160401 64.160401 0 0 1 35.057243 9.855038 62.158596 62.158596 0 0 1 23.713684 27.717293 102.656642 102.656642 0 0 1 8.212532 42.397193c0 25.66416-6.41604 45.271579-19.042808 59.027569a62.97985 62.97985 0 0 1-48.351278 20.839298zM643.503158 535.611028a51.995589 51.995589 0 0 0-16.835689-20.274687 63.441805 63.441805 0 0 0-25.664161-9.752381 189.914787 189.914787 0 0 0-31.15629-1.950476H491.468672v206.237193h30.796992v-82.125314h49.993785c29.05183 0 49.53183-6.210727 60.772731-18.478195a67.958697 67.958697 0 0 0 10.624963-73.502155z m-70.987068 64.263057h-50.404411v-68.523308h49.8398a110.817845 110.817845 0 0 1 24.483609 1.745163 28.179248 28.179248 0 0 1 15.860451 11.189574 34.646617 34.646617 0 0 1 6.056742 20.531328 32.901454 32.901454 0 0 1-10.265664 25.664161c-6.826667 6.262055-18.837494 9.393083-35.570527 9.393082zM768.641604 503.017544v206.853133h-28.74386v-155.935439a139.459048 139.459048 0 0 1-20.531328 14.423258 167.740952 167.740952 0 0 1-26.485413 12.986065l-2.566417 0.975238V554.345865l1.077895-0.513284a147.979549 147.979549 0 0 0 35.929825-23.457042 90.697143 90.697143 0 0 0 21.609223-26.485414L749.393484 503.017544zM927.70807 559.786667a103.529223 103.529223 0 0 0-12.83208-30.796993 56.461153 56.461153 0 0 0-20.993283-19.55609A61.850627 61.850627 0 0 0 864.368922 503.017544a58.411629 58.411629 0 0 0-37.8803 12.318797 74.426065 74.426065 0 0 0-22.533133 34.646616 187.810326 187.810326 0 0 0-7.493935 58.411629c0 38.290927 6.877995 66.367519 20.531328 83.45985a57.641704 57.641704 0 0 0 47.37604 21.609223 58.206316 58.206316 0 0 0 38.034286-12.370125 74.015439 74.015439 0 0 0 22.481805-34.697945 188.272281 188.272281 0 0 0 7.442606-58.103659 202.130927 202.130927 0 0 0-4.619549-48.505263z m-63.339148 129.244711a32.38817 32.38817 0 0 1-27.20401-15.655137c-7.493935-10.624962-11.292231-32.593484-11.29223-65.238296s4.208922-55.33193 12.472782-67.2401a29.821754 29.821754 0 0 1 25.66416-13.704662 32.644812 32.644812 0 0 1 27.51198 15.655138c7.493935 10.573634 11.292231 32.542155 11.292231 65.289624s-3.798296 54.510677-11.292231 65.186967a32.336842 32.336842 0 0 1-27.152682 15.706466z" p-id="13588" fill="#ffffff"></path></svg>