<?xml version="1.0" standalone="no"?><!DOCTYPE svg PUBLIC "-//W3C//DTD SVG 1.1//EN" "http://www.w3.org/Graphics/SVG/1.1/DTD/svg11.dtd"><svg t="1698851781634" class="icon" viewBox="0 0 1024 1024" version="1.1" xmlns="http://www.w3.org/2000/svg" p-id="5803" xmlns:xlink="http://www.w3.org/1999/xlink" width="200" height="200"><path d="M432 93.056a208 208 0 1 0 0 416 208 208 0 0 0 0-416z m0 96a112 112 0 1 1 0 224 112 112 0 0 1 0-224z m160 352a176 176 0 0 1 176 176v128a80 80 0 0 1-80 80h-512a80 80 0 0 1-80-80v-128a176 176 0 0 1 176-176z m182.464-0.48a32 32 0 0 1 42.976-14.144l14.304 7.2a176 176 0 0 1 96.704 157.184v176a32 32 0 0 1-32 32h-32a32 32 0 0 1-32-32v-176a80 80 0 0 0-44-71.488l-14.272-7.2a32 32 0 0 1-14.144-43.008zM592 637.056h-320a80 80 0 0 0-80 80v112h480v-112a80 80 0 0 0-74.752-79.84l-5.248-0.16z m149.824-520.672l12.32 10.208a223.584 223.584 0 0 1 81.376 172.704 223.584 223.584 0 0 1-81.376 172.736l-12.32 10.208a32 32 0 0 1-45.056-4.288l-20.384-24.64a32 32 0 0 1 4.288-45.088l12.32-10.176a127.616 127.616 0 0 0 46.528-98.752c0-38.72-17.216-74.496-46.528-98.72l-12.32-10.176a32 32 0 0 1-4.288-45.056l20.384-24.672a32 32 0 0 1 45.056-4.288z" fill="#ffffff" p-id="5804"></path></svg>