<?xml version="1.0" standalone="no"?><!DOCTYPE svg PUBLIC "-//W3C//DTD SVG 1.1//EN" "http://www.w3.org/Graphics/SVG/1.1/DTD/svg11.dtd"><svg class="icon" width="200px" height="200.00px" viewBox="0 0 1024 1024" version="1.1" xmlns="http://www.w3.org/2000/svg"><path fill="#ffffff" d="M658.91 493.12c40.34-38.51 65.45-92.66 65.45-152.65 0-116.87-95.3-211.61-212.85-211.61S298.67 223.6 298.67 340.47c0 60.13 25.23 114.39 65.72 152.91C225.9 545.85 128 669.67 128 813.12V896h768v-82.88c0-143.69-98.23-267.68-237.09-320zM384 340.47c0-69.63 57.2-126.28 127.52-126.28 70.31 0 127.52 56.65 127.52 126.28 0 67.88-54.37 123.42-122.25 126.16-1.59-0.02-3.18-0.03-4.78-0.03-1.83 0-3.65 0.01-5.48 0.04C438.52 464.03 384 408.44 384 340.47z m-170.65 470.2c0.72-66.81 30.7-130.27 84.62-178.92 55.58-50.16 129.2-78.34 207.87-79.74 1.89 0.05 3.78 0.08 5.68 0.08 1.97 0 3.94-0.03 5.9-0.08 78.96 1.23 152.86 29.43 208.62 79.75 53.92 48.65 83.91 112.11 84.62 178.92H213.35z"  /></svg>